<svg viewBox="0 0 20 20" xmlns="http://www.w3.org/2000/svg"><path d="M15.915 8.865c-3.223-1.914-8.54-2.09-11.618-1.156-.494.149-1.016-.129-1.166-.624-.15-.494.129-1.016.623-1.166 3.533-1.073 9.405-.866 13.116 1.337.444.264.59.838.326 1.282-.262.444-.838.591-1.281.327M15.81 11.7c-.226.367-.706.482-1.073.257-2.687-1.652-6.785-2.13-9.964-1.165-.413.124-.848-.108-.973-.52-.124-.412.108-.847.52-.972 3.631-1.102 8.146-.568 11.233 1.329.367.225.482.705.257 1.071m-1.224 2.723a.623.623 0 0 1-.857.207c-2.348-1.435-5.304-1.759-8.785-.964a.6223.6223 0 0 1-.746-.469.622.622 0 0 1 .469-.746c3.809-.871 7.076-.496 9.712 1.115.294.18.387.563.207.857M10 0C4.477 0 0 4.477 0 10s4.477 10 10 10 10-4.477 10-10C20 4.478 15.523.001 10 .001z" fill="#f174ac" fill-rule="evenodd"/></svg>
