<svg viewBox="0 0 24 24" fill="none" xmlns="http://www.w3.org/2000/svg"><path fill-rule="evenodd" clip-rule="evenodd" d="M3.4645 3.4645C2 4.9289 2 7.2859 2 12s0 7.0711 1.4645 8.5355S7.2859 22 12 22s7.0711 0 8.5355-1.4645S22 16.7141 22 12s0-7.071-1.4645-8.5355S16.714 2 12 2 4.929 2 3.4645 3.4645m5.7942 4.5094a.75.75 0 1 0-1.0174-1.1022l-2.25 2.077a.75.75 0 0 0 0 1.1022l2.25 2.0769a.75.75 0 1 0 1.0174-1.1022l-.8405-.7758h5.6203c1.4975 0 2.7115 1.214 2.7115 2.7115s-1.214 2.7116-2.7115 2.7116H9.5a.75.75 0 0 0 0 1.5h4.5385c2.3259 0 4.2115-1.8856 4.2115-4.2116s-1.8856-4.2115-4.2115-4.2115H8.4182z" fill="#f174ac"/></svg>
